# This file uses centimeters as units for non-parametric coordinates.

mtllib Elevator.mtl
g default
v 1.740723 -0.084652 -0.562215
v 1.482086 -0.084652 -1.069819
v 1.079248 -0.084652 -1.472657
v 0.571644 -0.084652 -1.731294
v 0.008959 -0.084652 -1.820415
v -0.553725 -0.084652 -1.731294
v -1.061329 -0.084652 -1.472657
v -1.464167 -0.084652 -1.069819
v -1.722804 -0.084652 -0.562214
v -1.811924 -0.084652 0.000470
v -1.722804 -0.084652 0.563154
v -1.464166 -0.084652 1.070758
v -1.061329 -0.084652 1.473595
v -0.553725 -0.084652 1.732233
v 0.008959 -0.084652 1.821353
v 0.571643 -0.084652 1.732233
v 1.079248 -0.084652 1.473595
v 1.482085 -0.084652 1.070758
v 1.740722 -0.084652 0.563153
v 1.829843 -0.084652 0.000470
v 1.740723 0.287735 -0.562215
v 1.482086 0.287735 -1.069819
v 1.079248 0.287735 -1.472657
v 0.571644 0.287735 -1.731294
v 0.008959 0.287735 -1.820415
v -0.553725 0.287735 -1.731294
v -1.061329 0.287735 -1.472657
v -1.464167 0.287735 -1.069819
v -1.722804 0.287735 -0.562214
v -1.811924 0.287735 0.000470
v -1.722804 0.287735 0.563154
v -1.464166 0.287735 1.070758
v -1.061329 0.287735 1.473595
v -0.553725 0.287735 1.732233
v 0.008959 0.287735 1.821353
v 0.571643 0.287735 1.732233
v 1.079248 0.287735 1.473595
v 1.482085 0.287735 1.070758
v 1.740722 0.287735 0.563153
v 1.829843 0.287735 0.000470
v 0.008959 -0.084652 0.000470
v 2.206135 -0.084652 -0.713435
v 1.877988 -0.084652 -1.357459
v 1.877988 0.287735 -1.357459
v 2.206135 0.287735 -0.713435
v 1.429593 -0.084652 -1.823001
v 1.429593 0.287735 -1.823001
v -2.301287 -0.084652 0.077977
v -2.188215 -0.084652 0.714375
v -2.188215 0.287735 0.714375
v -2.301287 0.287735 0.077977
v -1.860069 -0.084652 1.358398
v -1.860069 0.287735 1.358398
v -1.348969 -0.084652 1.869498
v -1.348969 0.287735 1.869498
v -0.704946 -0.084652 2.197644
v -0.704946 0.287735 2.197644
v 0.008959 -0.084652 2.310715
v 0.008959 0.287735 2.310715
v 0.722864 -0.084652 2.197644
v 0.722864 0.287735 2.197644
v 1.366888 -0.084652 1.869498
v 1.366888 0.287735 1.869498
v 1.877987 -0.084652 1.358398
v 1.877987 0.287735 1.358398
v 2.206133 -0.084652 0.714375
v 2.206133 0.287735 0.714375
v 2.319205 -0.084652 0.000470
v 2.319205 0.287735 0.000470
v 1.740723 5.156177 -0.562215
v 1.482086 5.156177 -1.069819
v 2.206135 5.156177 -0.713436
v 1.877988 5.156177 -1.357459
v 1.079248 5.156177 -1.472657
v 1.429593 5.156177 -1.823001
v -1.811924 5.156177 0.000470
v -1.722804 5.156177 0.563154
v -2.301287 5.156177 0.077977
v -2.188215 5.156177 0.714375
v -1.464166 5.156177 1.070758
v -1.860069 5.156177 1.358398
v -1.061329 5.156177 1.473595
v -1.348969 5.156177 1.869498
v -0.553725 5.156177 1.732233
v -0.704946 5.156177 2.197644
v 0.008959 5.156177 1.821353
v 0.008959 5.156177 2.310715
v 0.571643 5.156177 1.732233
v 0.722864 5.156177 2.197644
v 1.079248 5.156177 1.473595
v 1.366888 5.156177 1.869498
v 1.482085 5.156177 1.070758
v 1.877987 5.156177 1.358398
v 1.740722 5.156177 0.563154
v 2.206133 5.156177 0.714375
v 1.829843 5.156177 0.000469
v 2.319205 5.156177 0.000470
v 1.189200 0.442652 -0.383014
v 1.012932 0.442652 -0.728959
v 0.738388 0.442652 -1.003503
v 0.392443 0.442652 -1.179769
v 0.008959 0.442652 -1.240510
v -0.374524 0.442652 -1.179769
v -0.720469 0.442652 -1.003503
v -0.995013 0.442652 -0.728959
v -1.171279 0.442652 -0.383014
v -1.232020 0.442652 0.000469
v -1.171279 0.442652 0.383953
v -0.995011 0.442652 0.729898
v -0.720469 0.442652 1.004441
v -0.374524 0.442652 1.180708
v 0.008959 0.442652 1.241448
v 0.392442 0.442652 1.180708
v 0.738387 0.442652 1.004441
v 1.012931 0.442652 0.729898
v 1.189197 0.442652 0.383952
v 1.249938 0.442652 0.000469
v 0.769614 0.522084 -0.246682
v 0.656011 0.522084 -0.469641
v 0.008959 0.522084 0.000469
v 0.479070 0.522084 -0.646582
v 0.256111 0.522084 -0.760185
v 0.008959 0.522084 -0.799331
v -0.238192 0.522084 -0.760185
v -0.461151 0.522084 -0.646582
v -0.638092 0.522084 -0.469641
v -0.751695 0.522084 -0.246682
v -0.790841 0.522084 0.000469
v -0.751695 0.522084 0.247621
v -0.638091 0.522084 0.470580
v -0.461151 0.522084 0.647521
v -0.238192 0.522084 0.761123
v 0.008959 0.522084 0.800270
v 0.256111 0.522084 0.761123
v 0.479069 0.522084 0.647521
v 0.656011 0.522084 0.470579
v 0.769613 0.522084 0.247621
v 0.808760 0.522084 0.000469
vt 0.178162 0.001992
vt 0.222134 0.001992
vt 0.222134 0.027418
vt 0.178162 0.027418
vt 0.253920 0.001992
vt 0.253920 0.027418
vt 0.222134 0.359820
vt 0.178162 0.359820
vt 0.129419 0.001992
vt 0.129419 0.027418
vt 0.253920 0.359820
vt 0.129419 0.359820
vt 0.080676 0.001992
vt 0.080676 0.027418
vt 0.080676 0.359820
vt 0.036704 0.001992
vt 0.036704 0.027418
vt 0.036704 0.359820
vt 0.001807 0.001992
vt 0.001807 0.027418
vt 0.001807 0.359820
vt 0.755616 0.359820
vt 0.720959 0.359820
vt 0.720959 0.334394
vt 0.755616 0.334394
vt 0.682540 0.359820
vt 0.682540 0.334394
vt 0.779537 0.334394
vt 0.779537 0.359820
vt 0.644122 0.359820
vt 0.644122 0.334394
vt 0.755616 0.001992
vt 0.779537 0.001992
vt 0.609464 0.359820
vt 0.609464 0.334394
vt 0.581960 0.359820
vt 0.581960 0.334394
vt 0.544827 0.772541
vt 0.544827 0.737883
vt 0.570253 0.737883
vt 0.570253 0.772541
vt 0.544827 0.699464
vt 0.570253 0.699464
vt 0.260144 0.001992
vt 0.303595 0.001992
vt 0.303595 0.027418
vt 0.260144 0.027418
vt 0.347567 0.001992
vt 0.347567 0.027418
vt 0.303595 0.359820
vt 0.260144 0.359820
vt 0.382464 0.001992
vt 0.382464 0.027418
vt 0.347567 0.359820
vt 0.382464 0.359820
vt 0.389224 0.001992
vt 0.433196 0.001992
vt 0.433196 0.027418
vt 0.389224 0.027418
vt 0.481939 0.001992
vt 0.481939 0.027418
vt 0.433196 0.359820
vt 0.389224 0.359820
vt 0.530683 0.001992
vt 0.533186 0.027418
vt 0.481939 0.359820
vt 0.574654 0.001992
vt 0.572151 0.027418
vt 0.533186 0.359820
vt 0.572151 0.359820
vt 0.210054 0.420597
vt 0.244712 0.402938
vt 0.283130 0.521177
vt 0.190415 0.393566
vt 0.234387 0.371161
vt 0.283130 0.396853
vt 0.182550 0.448101
vt 0.158629 0.424181
vt 0.283130 0.363441
vt 0.321549 0.402938
vt 0.164891 0.482759
vt 0.331873 0.371161
vt 0.356206 0.420597
vt 0.158806 0.521177
vt 0.375845 0.393566
vt 0.383711 0.448101
vt 0.164891 0.559596
vt 0.410742 0.428462
vt 0.401370 0.482759
vt 0.182550 0.594253
vt 0.433147 0.472434
vt 0.407455 0.521177
vt 0.210054 0.621758
vt 0.440867 0.521177
vt 0.401370 0.559596
vt 0.244712 0.639417
vt 0.433147 0.569921
vt 0.383711 0.594253
vt 0.283130 0.645502
vt 0.410742 0.613893
vt 0.356206 0.621758
vt 0.321549 0.639417
vt 0.375845 0.648789
vt 0.331873 0.671194
vt 0.288422 0.678914
vt 0.466463 0.840664
vt 0.458707 0.855886
vt 0.414528 0.823789
vt 0.495111 0.849972
vt 0.483076 0.873592
vt 0.446626 0.867968
vt 0.469136 0.823789
vt 0.532768 0.862207
vt 0.515109 0.896865
vt 0.464331 0.892337
vt 0.499258 0.823789
vt 0.431403 0.875724
vt 0.466463 0.806914
vt 0.487604 0.924369
vt 0.538852 0.823789
vt 0.440711 0.904372
vt 0.495111 0.797606
vt 0.414528 0.878397
vt 0.458707 0.791691
vt 0.452947 0.942028
vt 0.532768 0.785371
vt 0.414528 0.908519
vt 0.483076 0.773986
vt 0.397653 0.875724
vt 0.446626 0.779610
vt 0.414528 0.948113
vt 0.515109 0.750713
vt 0.388345 0.904372
vt 0.464331 0.755241
vt 0.382430 0.867968
vt 0.431403 0.771854
vt 0.376110 0.942028
vt 0.487604 0.723208
vt 0.364725 0.892337
vt 0.440711 0.743206
vt 0.370349 0.855886
vt 0.414528 0.769181
vt 0.341452 0.924369
vt 0.452946 0.705549
vt 0.345980 0.873592
vt 0.414528 0.739059
vt 0.362593 0.840664
vt 0.397653 0.771854
vt 0.313948 0.896865
vt 0.414528 0.699464
vt 0.333945 0.849972
vt 0.388345 0.743206
vt 0.359920 0.823789
vt 0.382430 0.779610
vt 0.296289 0.862207
vt 0.376110 0.705549
vt 0.329798 0.823789
vt 0.364725 0.755241
vt 0.362593 0.806914
vt 0.370350 0.791691
vt 0.290204 0.823789
vt 0.341452 0.723208
vt 0.333945 0.797606
vt 0.345980 0.773986
vt 0.296289 0.785370
vt 0.313948 0.750713
vt 0.320589 0.639378
vt 0.355404 0.622033
vt 0.374799 0.649240
vt 0.330626 0.671247
vt 0.383156 0.594777
vt 0.410009 0.614660
vt 0.282117 0.645115
vt 0.287107 0.678574
vt 0.401127 0.560281
vt 0.432810 0.570893
vt 0.407559 0.521919
vt 0.440970 0.522221
vt 0.401821 0.483447
vt 0.433690 0.473410
vt 0.384476 0.448631
vt 0.411683 0.429237
vt 0.357221 0.420880
vt 0.377104 0.394027
vt 0.322725 0.402909
vt 0.333336 0.371226
vt 0.284363 0.396477
vt 0.284665 0.363066
vt 0.245891 0.402214
vt 0.235854 0.370346
vt 0.211075 0.419560
vt 0.191681 0.392352
vt 0.183324 0.446815
vt 0.159620 0.422679
vt 0.818717 0.334394
vt 0.818717 0.359820
vt 0.785305 0.359820
vt 0.785305 0.334394
vt 0.785305 0.001992
vt 0.818717 0.001992
vt 0.580084 0.363441
vt 0.614742 0.363441
vt 0.614742 0.695843
vt 0.580084 0.695843
vt 0.653160 0.363441
vt 0.653160 0.695843
vt 0.552580 0.363441
vt 0.552580 0.695843
vt 0.691579 0.363441
vt 0.691579 0.695843
vt 0.726236 0.363441
vt 0.726236 0.695843
vt 0.753741 0.363441
vt 0.753741 0.695843
vt 0.508595 0.363441
vt 0.547014 0.363441
vt 0.547014 0.695843
vt 0.508595 0.695843
vt 0.473937 0.363441
vt 0.473937 0.695843
vt 0.446433 0.363441
vt 0.446433 0.695843
vt 0.633931 0.678232
vt 0.603999 0.678232
vt 0.603999 0.352106
vt 0.633931 0.352106
vt 0.667112 0.678232
vt 0.667112 0.352106
vt 0.700292 0.678232
vt 0.700292 0.352106
vt 0.730225 0.678232
vt 0.730225 0.352106
vn 0.951057 0.000000 -0.309016
vn 0.819286 0.000000 -0.573386
vn 0.819286 -0.000000 -0.573386
vn 0.951057 -0.000000 -0.309016
vn 0.720247 0.000000 -0.693718
vn 0.720247 0.000000 -0.693718
vn 0.453991 0.000000 -0.891006
vn 0.309017 0.000000 -0.951056
vn 0.229825 0.668480 -0.707330
vn 0.288748 0.821888 -0.491044
vn -0.000000 0.000000 -1.000000
vn -0.000000 0.668480 -0.743731
vn -0.309017 0.000000 -0.951057
vn -0.229826 0.668479 -0.707330
vn -0.587785 0.000000 -0.809017
vn -0.437154 0.668479 -0.601691
vn -0.809017 0.000000 -0.587785
vn -0.601691 0.668479 -0.437154
vn -0.951057 0.000000 -0.309017
vn -0.707330 0.668479 -0.229825
vn -0.987688 0.000000 -0.156434
vn -0.566985 0.821888 -0.055026
vn -0.984580 0.000000 0.174934
vn -0.945443 0.000000 0.325788
vn -0.945443 0.000000 0.325788
vn -0.984580 0.000000 0.174934
vn -0.809017 0.000000 0.587785
vn -0.809017 0.000000 0.587786
vn -0.587785 0.000000 0.809017
vn -0.587785 0.000000 0.809017
vn -0.309017 0.000000 0.951057
vn -0.309017 0.000000 0.951057
vn 0.000000 0.000000 1.000000
vn -0.000000 0.000000 1.000000
vn 0.309017 0.000000 0.951057
vn 0.309017 0.000000 0.951057
vn 0.587785 0.000000 0.809017
vn 0.587785 0.000000 0.809017
vn 0.809017 0.000000 0.587785
vn 0.809017 0.000000 0.587785
vn 0.951057 0.000000 0.309017
vn 0.951057 -0.000000 0.309017
vn 1.000000 0.000000 0.000001
vn 1.000000 -0.000000 0.000001
vn 0.000000 -1.000000 -0.000000
vn 0.000000 -1.000000 -0.000000
vn 0.000000 -1.000000 0.000000
vn 0.000000 -1.000000 0.000000
vn 0.000000 -1.000000 0.000000
vn 0.000000 -1.000000 0.000000
vn 0.000000 -1.000000 0.000000
vn 0.000000 -1.000000 0.000000
vn 0.000000 -1.000000 0.000000
vn 0.000000 -1.000000 0.000000
vn 0.000000 -1.000000 0.000000
vn 0.000000 -1.000000 0.000000
vn 0.000000 -1.000000 -0.000000
vn 0.000000 -1.000000 -0.000000
vn 0.000000 -1.000000 0.000000
vn 0.000000 -1.000000 0.000000
vn 0.000000 -1.000000 0.000000
vn 0.000000 -1.000000 -0.000000
vn 0.000000 -1.000000 0.000000
vn 0.000000 -1.000000 0.000000
vn 0.000000 -1.000000 0.000000
vn 0.000000 1.000000 0.000000
vn 0.000000 1.000000 0.000000
vn 0.000000 1.000000 0.000000
vn 0.000000 1.000000 0.000000
vn 0.000000 1.000000 0.000000
vn 0.000000 1.000000 0.000000
vn 0.000000 1.000000 0.000000
vn 0.000000 1.000000 0.000000
vn 0.000000 1.000000 0.000000
vn 0.000000 1.000000 0.000000
vn 0.000000 1.000000 0.000000
vn 0.000000 1.000000 0.000000
vn 0.000000 1.000000 0.000000
vn 0.000000 1.000000 0.000000
vn 0.000000 1.000000 0.000000
vn 0.000000 1.000000 0.000000
vn 0.000000 1.000000 0.000000
vn 0.000000 1.000000 0.000000
vn 0.000000 1.000000 0.000000
vn 0.000000 1.000000 0.000000
vn 0.000000 1.000000 0.000000
vn 0.000000 -1.000000 -0.000000
vn 0.000000 -1.000000 -0.000000
vn 0.000000 1.000000 -0.000000
vn 0.000000 1.000000 -0.000000
vn 0.000000 1.000000 -0.000000
vn 0.000000 1.000000 0.000000
vn 0.000000 -1.000000 -0.000000
vn -0.707107 0.000000 -0.707107
vn -0.707107 0.000000 -0.707107
vn -0.707107 0.000000 -0.707107
vn -0.707107 0.000000 -0.707107
vn 0.000000 1.000000 0.000001
vn 0.000000 1.000000 0.000001
vn 0.000000 -1.000000 -0.000000
vn 0.000000 -1.000000 0.000000
vn 0.000000 1.000000 0.000000
vn 0.000000 1.000000 0.000001
vn 0.000000 1.000000 0.000001
vn 0.000000 1.000000 0.000000
vn -0.156434 0.000000 -0.987688
vn -0.156434 0.000000 -0.987688
vn -0.156434 0.000000 -0.987688
vn -0.156434 0.000000 -0.987688
vn 0.000000 -1.000000 -0.000000
vn 0.000000 1.000000 0.000000
vn 0.000000 1.000000 0.000000
vn 0.000000 -1.000000 -0.000000
vn 0.000000 1.000000 0.000000
vn 0.000000 1.000000 0.000000
vn 0.000000 -1.000000 0.000000
vn 0.000000 1.000000 -0.000000
vn 0.000000 1.000000 -0.000000
vn 0.000000 -1.000000 0.000000
vn 0.000000 1.000000 0.000000
vn 0.000000 1.000000 0.000000
vn 0.000000 -1.000000 0.000000
vn 0.000000 1.000000 -0.000000
vn 0.000000 1.000000 -0.000000
vn 0.000000 -1.000000 0.000000
vn 0.000000 1.000000 0.000000
vn 0.000000 1.000000 0.000000
vn 0.000000 -1.000000 0.000000
vn 0.000000 1.000000 0.000000
vn 0.000000 1.000000 0.000000
vn 0.000000 -1.000000 0.000000
vn 0.000000 1.000000 0.000000
vn 0.000000 1.000000 0.000000
vn 0.000000 -1.000000 0.000000
vn 0.000000 1.000000 0.000000
vn 0.000000 1.000000 0.000000
vn -0.809017 0.000000 0.587785
vn -0.951057 0.000000 0.309016
vn -0.951057 0.000000 0.309016
vn -0.809017 0.000000 0.587785
vn 0.819286 -0.000000 -0.573386
vn 0.951057 -0.000000 -0.309016
vn -0.707107 0.000000 0.707107
vn -0.707107 0.000000 0.707107
vn 0.720247 0.000000 -0.693718
vn -0.707107 0.000000 -0.707107
vn -0.707107 0.000000 -0.707107
vn 0.951057 0.000000 -0.309017
vn 0.987688 0.000000 -0.156434
vn 0.987688 0.000000 -0.156434
vn 0.951057 0.000000 -0.309017
vn -0.156434 0.000000 -0.987688
vn -0.156434 0.000000 -0.987688
vn -0.945443 0.000000 0.325788
vn -0.984580 0.000000 0.174934
vn 0.809017 -0.000000 -0.587785
vn 0.809017 -0.000000 -0.587785
vn -0.809017 0.000000 0.587786
vn 0.587785 -0.000000 -0.809017
vn 0.587785 -0.000000 -0.809017
vn -0.587785 0.000000 0.809017
vn 0.309017 -0.000000 -0.951057
vn 0.309017 -0.000000 -0.951057
vn -0.309017 0.000000 0.951056
vn 0.000000 -0.000000 -1.000000
vn 0.000000 -0.000000 -1.000000
vn -0.000000 0.000000 1.000000
vn -0.309017 0.000000 -0.951057
vn -0.309017 0.000000 -0.951057
vn 0.309017 0.000000 0.951056
vn -0.587785 0.000000 -0.809017
vn -0.587785 0.000000 -0.809017
vn 0.587785 0.000000 0.809017
vn -0.809017 0.000000 -0.587785
vn -0.809017 0.000000 -0.587785
vn 0.809017 0.000000 0.587785
vn -0.951056 0.000000 -0.309017
vn -0.951056 0.000000 -0.309017
vn 0.951057 -0.000000 0.309017
vn -1.000000 0.000000 -0.000001
vn -1.000000 0.000000 -0.000001
vn 1.000000 -0.000000 0.000001
vn 0.245460 0.966120 -0.079755
vn 0.208800 0.966120 -0.151702
vn 0.208800 0.966120 -0.151702
vn 0.245460 0.966120 -0.079755
vn 0.151702 0.966121 -0.208800
vn 0.079755 0.966121 -0.245459
vn -0.000000 0.966120 -0.258091
vn -0.079755 0.966120 -0.245459
vn -0.151702 0.966120 -0.208800
vn -0.208800 0.966120 -0.151702
vn -0.245459 0.966120 -0.079755
vn -0.258091 0.966120 -0.000000
vn -0.245459 0.966120 0.079755
vn -0.245459 0.966121 0.079755
vn -0.208800 0.966121 0.151702
vn -0.208800 0.966121 0.151702
vn -0.151702 0.966121 0.208800
vn -0.151702 0.966121 0.208800
vn -0.079755 0.966120 0.245459
vn -0.079755 0.966120 0.245459
vn 0.000000 0.966120 0.258091
vn -0.000000 0.966120 0.258091
vn 0.079755 0.966120 0.245459
vn 0.079755 0.966120 0.245459
vn 0.151702 0.966120 0.208800
vn 0.151702 0.966120 0.208800
vn 0.208800 0.966121 0.151702
vn 0.208800 0.966120 0.151702
vn 0.245459 0.966121 0.079755
vn 0.245459 0.966120 0.079755
vn 0.258091 0.966120 0.000000
vn 0.258092 0.966120 0.000000
vn 0.168522 0.984176 -0.054756
vn 0.143353 0.984176 -0.104152
vn 0.143353 0.984176 -0.104152
vn 0.168522 0.984176 -0.054756
vn 0.104152 0.984176 -0.143353
vn 0.104152 0.984176 -0.143353
vn 0.054756 0.984176 -0.168522
vn 0.054756 0.984176 -0.168522
vn 0.000000 0.984176 -0.177194
vn -0.000000 0.984176 -0.177194
vn -0.054756 0.984176 -0.168522
vn -0.054756 0.984176 -0.168522
vn -0.104152 0.984176 -0.143353
vn -0.104152 0.984176 -0.143353
vn -0.143353 0.984176 -0.104152
vn -0.143353 0.984176 -0.104152
vn -0.168522 0.984176 -0.054756
vn -0.168522 0.984176 -0.054756
vn -0.177194 0.984176 0.000000
vn -0.177194 0.984176 -0.000000
vn -0.168522 0.984176 0.054757
vn -0.168522 0.984176 0.054757
vn -0.143354 0.984176 0.104152
vn -0.143354 0.984176 0.104152
vn -0.104152 0.984176 0.143353
vn -0.104152 0.984176 0.143353
vn -0.054756 0.984176 0.168522
vn -0.054756 0.984176 0.168522
vn 0.000000 0.984176 0.177194
vn 0.000000 0.984176 0.177194
vn 0.054756 0.984176 0.168522
vn 0.054756 0.984176 0.168522
vn 0.104152 0.984176 0.143353
vn 0.104152 0.984176 0.143353
vn 0.143353 0.984176 0.104152
vn 0.143353 0.984176 0.104152
vn 0.168522 0.984176 0.054756
vn 0.168522 0.984176 0.054756
vn 0.177194 0.984176 0.000000
vn 0.177194 0.984176 0.000001
s 1
g pCylinder1
usemtl initialShadingGroup
f 42/1/1 43/2/2 44/3/3 45/4/4
f 43/2/2 46/5/5 47/6/6 44/3/3
s 2
f 3/22/7 4/23/8 24/24/9 23/25/10
f 4/23/8 5/26/11 25/27/12 24/24/9
f 5/26/11 6/30/13 26/31/14 25/27/12
f 6/30/13 7/34/15 27/35/16 26/31/14
f 7/34/15 8/36/17 28/37/18 27/35/16
f 8/38/17 9/39/19 29/40/20 28/41/18
f 9/39/19 10/42/21 30/43/22 29/40/20
s 1
f 48/44/23 49/45/24 50/46/25 51/47/26
f 49/45/24 52/48/27 53/49/28 50/46/25
f 52/48/27 54/52/29 55/53/30 53/49/28
f 54/56/29 56/57/31 57/58/32 55/59/30
f 56/57/31 58/60/33 59/61/34 57/58/32
f 58/60/33 60/64/35 61/65/36 59/61/34
f 60/64/35 62/67/37 63/68/38 61/65/36
f 62/19/37 64/16/39 65/17/40 63/20/38
f 64/16/39 66/13/41 67/14/42 65/17/40
f 66/13/41 68/9/43 69/10/44 67/14/42
f 68/9/43 42/1/1 45/4/4 69/10/44
s 4
f 2/71/45 1/72/46 41/73/47
f 3/77/48 2/71/45 41/73/47
f 4/81/49 3/77/48 41/73/47
f 5/84/50 4/81/49 41/73/47
f 6/87/51 5/84/50 41/73/47
f 7/90/52 6/87/51 41/73/47
f 8/93/53 7/90/52 41/73/47
f 9/96/54 8/93/53 41/73/47
f 10/99/55 9/96/54 41/73/47
f 11/102/56 10/99/55 41/73/47
f 12/101/57 11/102/56 41/73/47
f 13/98/58 12/101/57 41/73/47
f 14/95/59 13/98/58 41/73/47
f 15/92/60 14/95/59 41/73/47
f 16/89/61 15/92/60 41/73/47
f 17/86/62 16/89/61 41/73/47
f 18/83/63 17/86/62 41/73/47
f 19/80/64 18/83/63 41/73/47
f 20/76/65 19/80/64 41/73/47
f 1/72/46 20/76/65 41/73/47
s 5
f 118/106/66 119/107/67 120/108/68
f 119/107/67 121/111/69 120/108/68
f 121/111/69 122/117/70 120/108/68
f 122/117/70 123/123/71 120/108/68
f 123/123/71 124/129/72 120/108/68
f 124/129/72 125/135/73 120/108/68
f 125/135/73 126/141/74 120/108/68
f 126/141/74 127/147/75 120/108/68
f 127/147/75 128/153/76 120/108/68
f 128/153/76 129/159/77 120/108/68
f 129/159/77 130/160/78 120/108/68
f 130/160/78 131/154/79 120/108/68
f 131/154/79 132/148/80 120/108/68
f 132/148/80 133/142/81 120/108/68
f 133/142/81 134/136/82 120/108/68
f 134/136/82 135/130/83 120/108/68
f 135/130/83 136/124/84 120/108/68
f 136/124/84 137/118/85 120/108/68
f 137/118/85 138/112/86 120/108/68
f 138/112/86 118/106/66 120/108/68
s 4
f 1/72/46 2/71/45 43/74/87 42/75/88
s 6
f 71/167/89 70/168/90 72/169/91 73/170/92
s 4
f 2/71/45 3/77/48 46/78/93 43/74/87
s 7
f 3/22/94 23/25/95 47/28/96 46/29/97
s 6
f 74/173/98 71/167/89 73/170/92 75/174/99
s 4
f 10/99/55 11/102/56 49/104/100 48/105/101
s 6
f 77/191/102 76/193/103 78/194/104 79/192/105
s 9
f 30/195/106 10/196/107 48/197/108 51/198/109
s 4
f 11/102/56 12/101/57 52/103/110 49/104/100
s 6
f 80/189/111 77/191/102 79/192/105 81/190/112
s 4
f 12/101/57 13/98/58 54/100/113 52/103/110
s 6
f 82/187/114 80/189/111 81/190/112 83/188/115
s 4
f 13/98/58 14/95/59 56/97/116 54/100/113
s 6
f 84/185/117 82/187/114 83/188/115 85/186/118
s 4
f 14/95/59 15/92/60 58/94/119 56/97/116
s 6
f 86/183/120 84/185/117 85/186/118 87/184/121
s 4
f 15/92/60 16/89/61 60/91/122 58/94/119
s 6
f 88/181/123 86/183/120 87/184/121 89/182/124
s 4
f 16/89/61 17/86/62 62/88/125 60/91/122
s 6
f 90/179/126 88/181/123 89/182/124 91/180/127
s 4
f 17/86/62 18/83/63 64/85/128 62/88/125
s 6
f 92/177/129 90/179/126 91/180/127 93/178/130
s 4
f 18/83/63 19/80/64 66/82/131 64/85/128
s 6
f 94/175/132 92/177/129 93/178/130 95/176/133
s 4
f 19/80/64 20/76/65 68/79/134 66/82/131
s 6
f 96/171/135 94/175/132 95/176/133 97/172/136
s 4
f 20/76/65 1/72/46 42/75/88 68/79/134
s 6
f 70/168/90 96/171/135 97/172/136 72/169/91
s 10
f 22/201/137 21/202/138 70/203/139 71/204/140
s 1
f 45/4/4 44/3/3 73/7/141 72/8/142
s 10
f 23/207/143 22/201/137 71/204/140 74/208/144
s 1
f 44/3/3 47/6/6 75/11/145 73/7/141
s 7
f 47/28/96 23/25/95 74/32/146 75/33/147
s 10
f 31/215/148 30/216/149 76/217/150 77/218/151
s 9
f 30/195/106 51/198/109 78/199/152 76/200/153
s 1
f 51/47/26 50/46/25 79/50/154 78/51/155
s 10
f 32/219/156 31/215/148 77/218/151 80/220/157
s 1
f 50/46/25 53/49/28 81/54/158 79/50/154
s 10
f 33/221/159 32/219/156 80/220/157 82/222/160
s 1
f 53/49/28 55/53/30 83/55/161 81/54/158
s 10
f 34/223/162 33/224/159 82/225/160 84/226/163
s 1
f 55/59/30 57/58/32 85/62/164 83/63/161
s 10
f 35/227/165 34/223/162 84/226/163 86/228/166
s 1
f 57/58/32 59/61/34 87/66/167 85/62/164
s 10
f 36/229/168 35/227/165 86/228/166 88/230/169
s 1
f 59/61/34 61/65/36 89/69/170 87/66/167
s 10
f 37/231/171 36/229/168 88/230/169 90/232/172
s 1
f 61/65/36 63/68/38 91/70/173 89/69/170
s 10
f 38/211/174 37/213/171 90/214/172 92/212/175
s 1
f 63/20/38 65/17/40 93/18/176 91/21/173
s 10
f 39/209/177 38/211/174 92/212/175 94/210/178
s 1
f 65/17/40 67/14/42 95/15/179 93/18/176
s 10
f 40/205/180 39/209/177 94/210/178 96/206/181
s 1
f 67/14/42 69/10/44 97/12/182 95/15/179
s 10
f 21/202/138 40/205/180 96/206/181 70/203/139
s 1
f 69/10/44 45/4/4 72/8/142 97/12/182
s 2
f 21/113/183 22/114/184 99/110/185 98/109/186
f 22/114/184 23/119/10 100/115/187 99/110/185
f 23/119/10 24/125/9 101/121/188 100/115/187
f 24/125/9 25/131/12 102/127/189 101/121/188
f 25/131/12 26/137/14 103/133/190 102/127/189
f 26/137/14 27/143/16 104/139/191 103/133/190
f 27/143/16 28/149/18 105/145/192 104/139/191
f 28/149/18 29/155/20 106/151/193 105/145/192
f 29/155/20 30/161/22 107/157/194 106/151/193
f 30/161/22 31/165/195 108/163/196 107/157/194
f 31/165/195 32/166/197 109/164/198 108/163/196
f 32/166/197 33/162/199 110/158/200 109/164/198
f 33/162/199 34/156/201 111/152/202 110/158/200
f 34/156/201 35/150/203 112/146/204 111/152/202
f 35/150/203 36/144/205 113/140/206 112/146/204
f 36/144/205 37/138/207 114/134/208 113/140/206
f 37/138/207 38/132/209 115/128/210 114/134/208
f 38/132/209 39/126/211 116/122/212 115/128/210
f 39/126/211 40/120/213 117/116/214 116/122/212
f 40/120/213 21/113/183 98/109/186 117/116/214
s 13
f 98/109/215 99/110/216 119/107/217 118/106/218
f 99/110/216 100/115/219 121/111/220 119/107/217
f 100/115/219 101/121/221 122/117/222 121/111/220
f 101/121/221 102/127/223 123/123/224 122/117/222
f 102/127/223 103/133/225 124/129/226 123/123/224
f 103/133/225 104/139/227 125/135/228 124/129/226
f 104/139/227 105/145/229 126/141/230 125/135/228
f 105/145/229 106/151/231 127/147/232 126/141/230
f 106/151/231 107/157/233 128/153/234 127/147/232
f 107/157/233 108/163/235 129/159/236 128/153/234
f 108/163/235 109/164/237 130/160/238 129/159/236
f 109/164/237 110/158/239 131/154/240 130/160/238
f 110/158/239 111/152/241 132/148/242 131/154/240
f 111/152/241 112/146/243 133/142/244 132/148/242
f 112/146/243 113/140/245 134/136/246 133/142/244
f 113/140/245 114/134/247 135/130/248 134/136/246
f 114/134/247 115/128/249 136/124/250 135/130/248
f 115/128/249 116/122/251 137/118/252 136/124/250
f 116/122/251 117/116/253 138/112/254 137/118/252
f 117/116/253 98/109/215 118/106/218 138/112/254
