# This file uses centimeters as units for non-parametric coordinates.

mtllib NICE.mtl
g default
v -1.250000 -1.250000 0.050000
v 1.250000 -1.250000 0.050000
v -1.250000 1.250000 0.050000
v 1.250000 1.250000 0.050000
v -1.250000 1.250000 -0.050000
v 1.250000 1.250000 -0.050000
v -1.250000 -1.250000 -0.050000
v 1.250000 -1.250000 -0.050000
vt 0.164499 0.017592
vt 1.000786 -0.000120
vt 0.143058 0.004521
vt 0.146647 0.044709
vt 0.146224 0.005551
vt 0.183451 0.044914
vt 0.156869 0.012367
vt 0.173517 0.032843
vt 0.156869 0.035293
vt 0.179794 0.035293
vt 0.185744 0.005613
vt 0.185744 0.044709
vt 0.156129 0.017592
vt 0.156129 0.025961
vt 0.146647 0.005613
vt 1.000786 1.001451
vt 0.183451 0.004521
vt -0.000786 -0.000120
vt -0.000786 1.001451
vt 0.164499 0.025961
vt 0.173517 0.005551
vt 0.143058 0.044914
vt 0.179794 0.012367
vt 0.146224 0.032843
vn 0.000000 0.000000 1.000000
vn 0.000000 0.000000 1.000000
vn 0.000000 0.000000 1.000000
vn 0.000000 0.000000 1.000000
vn 0.000000 1.000000 0.000000
vn 0.000000 1.000000 0.000000
vn 0.000000 1.000000 0.000000
vn 0.000000 1.000000 0.000000
vn 0.000000 0.000000 -1.000000
vn 0.000000 0.000000 -1.000000
vn 0.000000 0.000000 -1.000000
vn 0.000000 0.000000 -1.000000
vn 0.000000 -1.000000 0.000000
vn 0.000000 -1.000000 0.000000
vn 0.000000 -1.000000 0.000000
vn 0.000000 -1.000000 0.000000
vn 1.000000 0.000000 0.000000
vn 1.000000 0.000000 0.000000
vn 1.000000 0.000000 0.000000
vn 1.000000 0.000000 0.000000
vn -1.000000 0.000000 0.000000
vn -1.000000 0.000000 0.000000
vn -1.000000 0.000000 0.000000
vn -1.000000 0.000000 0.000000
s off
g pCube1
usemtl lambert2SG
f 1/18/1 2/2/2 4/16/3 3/19/4
f 3/3/5 4/17/6 6/6/7 5/22/8
f 5/5/9 6/21/10 8/8/11 7/24/12
f 7/7/13 8/23/14 2/10/15 1/9/16
f 2/15/17 8/11/18 6/12/19 4/4/20
f 7/13/21 1/1/22 3/20/23 5/14/24
