# This file uses centimeters as units for non-parametric coordinates.

mtllib Player.mtl
g default
v -0.711887 0.088184 0.772845
v 1.147322 0.126105 0.914548
v -0.711887 0.088184 -0.651167
v 1.147322 0.126105 -0.792870
v -0.225526 1.251292 0.277213
v 0.093897 1.213371 0.320276
v 0.093897 1.213371 -0.198597
v -0.225526 1.251292 -0.155535
v -0.418181 1.338178 0.502513
v 0.409153 1.338178 0.502513
v 0.409153 1.338178 -0.380835
v -0.418181 1.338178 -0.380835
v -0.358849 1.359775 0.439164
v 0.349821 1.359775 0.439164
v 0.349821 1.359775 -0.317486
v -0.358849 1.359775 -0.317486
v -0.346532 1.886310 0.426013
v 0.337504 1.886310 0.426013
v 0.337504 1.886310 -0.304335
v -0.346532 1.886310 -0.304335
v -0.358849 1.809049 -0.317486
v 0.349821 1.809049 -0.317486
v 0.349821 1.809049 0.439164
v -0.358849 1.809049 0.439164
v -0.860694 1.812625 -0.853247
v 0.851666 1.812625 -0.853247
v -0.860694 1.874925 -0.853247
v 0.851666 1.874925 -0.853247
v 0.851666 1.812625 0.974925
v 0.851666 1.874925 0.974925
v -0.860694 1.812625 0.974925
v -0.860694 1.874925 0.974925
v -0.057562 2.880193 0.117479
v 0.048534 2.880193 0.117479
v 0.048534 2.880193 0.004199
v -0.057562 2.880193 0.004199
vt 0.615221 0.785726
vt 0.635870 0.785726
vt 0.635870 0.807772
vt 0.615221 0.807772
vt 0.753844 0.589996
vt 0.753844 0.361826
vt 0.998008 0.339121
vt 0.998008 0.612702
vt 0.521343 0.605824
vt 0.528723 0.361660
vt 0.740329 0.474889
vt 0.747709 0.526793
vt 0.762278 0.275447
vt 0.762278 0.001866
vt 0.973884 0.097087
vt 0.973884 0.180226
vt 0.507827 0.361660
vt 0.515207 0.605824
vt 0.288840 0.526793
vt 0.296221 0.474889
vt 0.056339 0.589831
vt 0.056339 0.361660
vt 0.282705 0.441076
vt 0.282705 0.510415
vt 0.628982 0.730444
vt 0.680886 0.737344
vt 0.743992 0.781734
vt 0.582975 0.781734
vt 0.680886 0.654205
vt 0.743992 0.609815
vt 0.628982 0.661105
vt 0.582975 0.609815
vt 0.750585 0.616693
vt 0.911602 0.616693
vt 0.897658 0.631581
vt 0.764529 0.631581
vt 0.911602 0.788612
vt 0.897658 0.773723
vt 0.750585 0.788612
vt 0.764529 0.773723
vt 0.642005 0.918854
vt 0.642005 0.785726
vt 0.726404 0.785726
vt 0.726404 0.918854
vt 0.913609 0.934745
vt 0.913609 0.792603
vt 0.998008 0.792603
vt 0.998008 0.934745
vt 0.816939 0.792603
vt 0.816939 0.925732
vt 0.732540 0.925732
vt 0.732540 0.792603
vt 0.823074 0.934745
vt 0.823074 0.792603
vt 0.907474 0.792603
vt 0.907474 0.934745
vt 0.735424 0.001866
vt 0.735424 0.335129
vt 0.723299 0.335129
vt 0.723299 0.001866
vt 0.001992 0.357669
vt 0.001992 0.001866
vt 0.014117 0.001866
vt 0.014117 0.357669
vt 0.742789 0.335129
vt 0.742789 0.001866
vt 0.754914 0.001866
vt 0.754914 0.335129
vt 0.021677 0.357669
vt 0.021677 0.001866
vt 0.033802 0.001866
vt 0.033802 0.357669
vt 0.274362 0.108696
vt 0.141233 0.108696
vt 0.041166 0.001866
vt 0.374429 0.001866
vt 0.141233 0.250838
vt 0.041166 0.357669
vt 0.274362 0.250838
vt 0.374429 0.357669
vt 0.482300 0.250838
vt 0.615429 0.250838
vt 0.715496 0.357669
vt 0.382233 0.357669
vt 0.615429 0.108696
vt 0.715496 0.001866
vt 0.482300 0.108696
vt 0.382233 0.001866
vt 0.001992 0.692714
vt 0.135121 0.692714
vt 0.078881 0.886146
vt 0.058232 0.886146
vt 0.142511 0.693093
vt 0.284653 0.693093
vt 0.224606 0.886524
vt 0.202559 0.886524
vt 0.384071 0.886524
vt 0.250942 0.886524
vt 0.307182 0.693093
vt 0.327831 0.693093
vt 0.342688 0.693093
vt 0.484830 0.693093
vt 0.424783 0.886524
vt 0.402736 0.886524
vn 0.000000 1.000000 0.000000
vn 0.000000 1.000000 0.000000
vn 0.000000 1.000000 0.000000
vn 0.000000 1.000000 0.000000
vn 0.020392 -0.999792 0.000000
vn 0.020392 -0.999792 0.000000
vn 0.020392 -0.999792 0.000000
vn 0.020392 -0.999792 0.000000
vn -0.076734 0.418876 0.904795
vn -0.076734 0.418876 0.904795
vn -0.080567 0.326039 0.941917
vn -0.081095 0.311189 0.946882
vn 0.718195 0.695842 0.000000
vn 0.718195 0.695842 0.000000
vn 0.811599 0.584216 0.000000
vn 0.811598 0.584216 0.000000
vn -0.076734 0.418876 -0.904795
vn -0.076734 0.418876 -0.904795
vn -0.081095 0.311189 -0.946882
vn -0.080567 0.326038 -0.941917
vn -0.922588 0.385786 0.000000
vn -0.922588 0.385786 0.000000
vn -0.968456 0.249186 0.000000
vn -0.968456 0.249186 0.000000
vn -0.046826 -0.880614 0.471516
vn -0.046826 -0.880614 0.471516
vn 0.368094 -0.929789 0.000000
vn 0.368094 -0.929789 0.000000
vn -0.046826 -0.880614 -0.471515
vn -0.046826 -0.880614 -0.471515
vn -0.411115 -0.911583 0.000000
vn -0.411115 -0.911583 0.000000
vn 0.000000 0.946506 0.322685
vn 0.000000 0.946506 0.322685
vn 0.000000 0.946506 0.322685
vn 0.000000 0.946506 0.322685
vn 0.342049 0.939682 0.000000
vn 0.342049 0.939682 0.000000
vn 0.342049 0.939682 0.000000
vn 0.342049 0.939682 0.000000
vn 0.000000 0.946506 -0.322685
vn 0.000000 0.946506 -0.322685
vn 0.000000 0.946506 -0.322685
vn 0.000000 0.946506 -0.322685
vn -0.342049 0.939682 0.000000
vn -0.342049 0.939682 0.000000
vn -0.342049 0.939682 0.000000
vn -0.342049 0.939682 0.000000
vn 0.000000 0.000000 1.000000
vn 0.000000 0.000000 1.000000
vn 0.000000 0.000000 1.000000
vn 0.000000 0.000000 1.000000
vn 1.000000 0.000000 0.000000
vn 1.000000 0.000000 0.000000
vn 1.000000 0.000000 0.000000
vn 1.000000 0.000000 0.000000
vn 0.000000 0.000000 -1.000000
vn 0.000000 0.000000 -1.000000
vn 0.000000 0.000000 -1.000000
vn 0.000000 0.000000 -1.000000
vn -1.000000 0.000000 0.000000
vn -1.000000 0.000000 0.000000
vn -1.000000 0.000000 0.000000
vn -1.000000 0.000000 0.000000
vn 0.000000 0.000000 -1.000000
vn 0.000000 0.000000 -1.000000
vn 0.000000 0.000000 -1.000000
vn 0.000000 0.000000 -1.000000
vn 1.000000 0.000000 0.000000
vn 1.000000 0.000000 0.000000
vn 1.000000 0.000000 0.000000
vn 1.000000 0.000000 0.000000
vn 0.000000 0.000000 1.000000
vn 0.000000 0.000000 1.000000
vn 0.000000 0.000000 1.000000
vn 0.000000 0.000000 1.000000
vn -1.000000 0.000000 0.000000
vn -1.000000 0.000000 0.000000
vn -1.000000 0.000000 0.000000
vn -1.000000 0.000000 0.000000
vn 0.003612 -0.999988 -0.003291
vn -0.003612 -0.999988 -0.003291
vn -0.003415 -0.999988 -0.003476
vn 0.003415 -0.999988 -0.003476
vn -0.011223 0.999885 -0.010225
vn 0.011223 0.999885 -0.010225
vn 0.010610 0.999885 -0.010800
vn -0.010610 0.999885 -0.010800
vn 0.003612 -0.999988 0.003291
vn 0.003415 -0.999988 0.003476
vn 0.011223 0.999885 0.010225
vn 0.010610 0.999885 0.010800
vn -0.003612 -0.999988 0.003291
vn -0.003415 -0.999988 0.003476
vn -0.011223 0.999885 0.010225
vn -0.010610 0.999885 0.010800
vn 0.000000 0.296476 0.955040
vn 0.000000 0.296476 0.955040
vn 0.000000 0.296476 0.955040
vn 0.000000 0.296476 0.955040
vn 0.960237 0.279187 0.000000
vn 0.960237 0.279187 0.000000
vn 0.960237 0.279187 0.000000
vn 0.960237 0.279187 0.000000
vn 0.000000 0.296476 -0.955040
vn 0.000000 0.296476 -0.955040
vn 0.000000 0.296476 -0.955040
vn 0.000000 0.296476 -0.955040
vn -0.960237 0.279187 0.000000
vn -0.960237 0.279187 0.000000
vn -0.960237 0.279187 0.000000
vn -0.960237 0.279187 0.000000
s off
g pPlane1
usemtl initialShadingGroup
f 33/1/1 34/2/2 35/3/3 36/4/4
f 1/5/5 3/6/6 4/7/7 2/8/8
s 1
f 1/9/9 2/10/10 6/11/11 5/12/12
s 2
f 2/13/13 4/14/14 7/15/15 6/16/16
s 3
f 4/17/17 3/18/18 8/19/19 7/20/20
s 4
f 3/21/21 1/22/22 5/23/23 8/24/24
s 1
f 5/25/12 6/26/11 10/27/25 9/28/26
s 2
f 6/26/16 7/29/15 11/30/27 10/27/28
s 3
f 7/29/20 8/31/19 12/32/29 11/30/30
s 4
f 8/31/24 5/25/23 9/28/31 12/32/32
s off
f 9/33/33 10/34/34 14/35/35 13/36/36
f 10/34/37 11/37/38 15/38/39 14/35/40
f 11/37/41 12/39/42 16/40/43 15/38/44
f 12/39/45 9/33/46 13/36/47 16/40/48
f 13/41/49 14/42/50 23/43/51 24/44/52
f 14/45/53 15/46/54 22/47/55 23/48/56
f 15/49/57 16/50/58 21/51/59 22/52/60
f 16/53/61 13/54/62 24/55/63 21/56/64
f 26/57/65 25/58/66 27/59/67 28/60/68
f 29/61/69 26/62/70 28/63/71 30/64/72
f 31/65/73 29/66/74 30/67/75 32/68/76
f 25/69/77 31/70/78 32/71/79 27/72/80
s 5
f 22/73/81 21/74/82 25/75/83 26/76/84
s 6
f 20/81/85 19/82/86 28/83/87 27/84/88
s 5
f 23/79/89 22/73/81 26/76/84 29/80/90
s 6
f 19/82/86 18/85/91 30/86/92 28/83/87
s 5
f 24/77/93 23/79/89 29/80/90 31/78/94
s 6
f 18/85/91 17/87/95 32/88/96 30/86/92
s 5
f 21/74/82 24/77/93 31/78/94 25/75/83
s 6
f 17/87/95 20/81/85 27/84/88 32/88/96
s off
f 17/89/97 18/90/98 34/91/99 33/92/100
f 18/93/101 19/94/102 35/95/103 34/96/104
f 19/97/105 20/98/106 36/99/107 35/100/108
f 20/101/109 17/102/110 33/103/111 36/104/112
