# This file uses centimeters as units for non-parametric coordinates.

mtllib Sugar.mtl
g default
v -0.736132 0.000000 0.439697
v 0.686939 0.000000 0.439697
v -0.736132 1.438720 0.466322
v 0.686939 1.438720 0.466322
v -0.736132 1.407946 -0.241766
v 0.686939 1.407946 -0.241766
v -0.736132 0.000000 -0.266225
v 0.686939 0.000000 -0.266225
v 0.686939 1.799320 -0.039784
v -0.736132 1.799320 -0.039784
v 0.686939 -0.143162 0.086736
v -0.736132 -0.143162 0.086736
v -0.736132 1.729866 0.038806
v -0.736132 1.640816 0.003030
v -0.736132 1.582225 -0.036168
v -0.736132 1.543747 -0.079291
v -0.736132 1.515915 -0.125725
v -0.736132 1.490724 -0.175586
v -0.736132 1.460555 -0.230154
v 0.686939 1.729866 0.038806
v 0.686939 1.640816 0.003030
v 0.686939 1.582225 -0.036168
v 0.686939 1.543747 -0.079291
v 0.686939 1.515915 -0.125725
v 0.686939 1.490724 -0.175586
v 0.686939 1.460555 -0.230154
v 0.686939 1.509309 0.435426
v 0.686939 1.558537 0.399063
v 0.686939 1.593040 0.359140
v 0.686939 1.620900 0.317481
v 0.686939 1.651353 0.274456
v 0.686939 1.694608 0.229019
v 0.686939 1.762112 0.180107
v -0.736132 1.509309 0.435426
v -0.736132 1.558537 0.399063
v -0.736132 1.593040 0.359140
v -0.736132 1.620900 0.317481
v -0.736132 1.651353 0.274456
v -0.736132 1.694608 0.229019
v -0.736132 1.762112 0.180107
vt 0.235237 -0.090456
vt 1.002180 -0.001641
vt 0.814482 -0.217835
vt 0.722125 1.163945
vt 0.814482 0.102760
vt 1.135078 0.102760
vt 0.814482 0.423354
vt 1.135078 0.423354
vt 0.814482 0.743950
vt 1.135078 0.743950
vt 1.195314 0.690756
vt 1.195314 1.163945
vt -0.229926 -0.090456
vt -0.229926 0.374708
vt 1.135078 -0.057537
vt 0.958720 1.163945
vt 0.002655 0.374708
vt 0.814482 -0.057537
vt 1.135078 0.583652
vt 0.958720 0.690756
vt 0.002655 -0.090456
vt 0.814482 0.583652
vt -0.026418 0.374708
vt 0.814482 -0.037500
vt -0.055490 0.374708
vt 0.814482 -0.017463
vt -0.084563 0.374708
vt 0.814482 0.002574
vt -0.113636 0.374708
vt 0.814482 0.022611
vt -0.142709 0.374708
vt 0.814482 0.042649
vt -0.171782 0.374708
vt 0.814482 0.062685
vt -0.200854 0.374708
vt 0.814482 0.082723
vt 1.135078 -0.037500
vt 0.988294 1.163945
vt 1.135078 -0.017463
vt 1.017868 1.163945
vt 1.135078 0.002574
vt 1.047442 1.163945
vt 1.135078 0.022611
vt 1.077017 1.163945
vt 1.135078 0.042649
vt 1.106591 1.163945
vt 1.135078 0.062685
vt 1.136165 1.163945
vt 1.135078 0.082723
vt 1.165740 1.163945
vt 1.135078 -0.197798
vt 0.751700 1.163945
vt 1.135078 -0.177761
vt 0.781274 1.163945
vt 1.135078 -0.157724
vt 0.810848 1.163945
vt 1.135078 -0.137686
vt 0.840422 1.163945
vt 1.135078 -0.117649
vt 0.869997 1.163945
vt 1.135078 -0.097612
vt 0.899571 1.163945
vt 1.135078 -0.077575
vt 0.929146 1.163945
vt 0.206164 0.374708
vt 0.814482 -0.197798
vt 0.177092 0.374708
vt 0.814482 -0.177761
vt 0.148019 0.374708
vt 0.814482 -0.157724
vt 0.118946 0.374708
vt 0.814482 -0.137686
vt 0.089873 0.374708
vt 0.814482 -0.117649
vt 0.060801 0.374708
vt 0.814482 -0.097612
vt 0.031728 0.374708
vt 0.814482 -0.077575
vt 0.722125 0.690756
vt 1.002180 0.998359
vt 1.135078 -0.217835
vt 0.002180 -0.001641
vt 0.002180 0.998359
vt 0.235237 0.374708
vn 0.000000 -0.018503 0.999829
vn 0.000000 -0.018503 0.999829
vn 0.000000 -0.018503 0.999829
vn 0.000000 -0.018503 0.999829
vn 0.000000 0.400964 0.916094
vn 0.000000 0.400965 0.916093
vn 0.000000 0.489498 0.872004
vn 0.000000 0.489499 0.872004
vn 0.000000 0.017370 -0.999849
vn 0.000000 0.017370 -0.999849
vn 0.000000 0.017370 -0.999849
vn 0.000000 0.017370 -0.999849
vn 0.000000 -0.926675 -0.375863
vn 0.000000 -0.926675 -0.375863
vn 0.000000 -1.000000 0.000000
vn 0.000000 -1.000000 0.000000
vn 1.000000 0.000000 0.000000
vn 1.000000 0.000000 0.000000
vn 1.000000 0.000000 0.000000
vn 1.000000 0.000000 0.000000
vn 1.000000 -0.000000 0.000000
vn 1.000000 0.000000 0.000000
vn 1.000000 0.000000 0.000000
vn 1.000000 0.000000 0.000000
vn 1.000000 -0.000002 0.000000
vn 1.000000 -0.000000 0.000000
vn 1.000000 0.000000 0.000000
vn 1.000000 -0.000001 0.000000
vn 1.000000 0.000001 0.000000
vn 1.000000 0.000002 0.000000
vn 1.000000 -0.000004 0.000000
vn 1.000000 0.000000 0.000000
vn 1.000000 0.000000 0.000000
vn 1.000000 0.000000 0.000000
vn 1.000000 -0.000001 0.000000
vn 1.000000 -0.000001 0.000000
vn -1.000000 0.000000 0.000000
vn -1.000000 0.000000 0.000000
vn -1.000000 0.000000 0.000000
vn -1.000000 0.000000 0.000000
vn -1.000000 0.000000 0.000000
vn -1.000000 0.000000 0.000000
vn -1.000000 0.000000 0.000000
vn -1.000000 0.000000 0.000000
vn -1.000000 0.000000 0.000000
vn -1.000000 0.000000 0.000000
vn -1.000000 0.000000 0.000000
vn -1.000000 0.000000 0.000000
vn -1.000000 0.000000 0.000000
vn -1.000000 0.000000 0.000000
vn -1.000000 0.000000 0.000000
vn -1.000000 0.000000 0.000000
vn -1.000000 0.000000 0.000000
vn -1.000000 0.000000 0.000000
vn -1.000000 0.000000 0.000000
vn -1.000000 0.000000 0.000000
vn -0.000000 0.974935 -0.222489
vn 0.000000 0.974935 -0.222490
vn -0.000000 -0.260765 -0.965402
vn 0.000000 -0.260765 -0.965402
vn 0.000000 -0.926675 0.375863
vn 0.000000 -0.926675 0.375863
vn 0.000000 0.624452 -0.781063
vn 0.000000 0.624452 -0.781063
vn 0.000000 0.215540 -0.976495
vn 0.000000 0.215540 -0.976495
vn 0.000000 0.883528 -0.468378
vn 0.000000 0.883528 -0.468378
vn 0.000000 0.875984 -0.482341
vn 0.000000 0.875984 -0.482340
vn 0.000000 0.803680 -0.595062
vn 0.000000 0.803680 -0.595061
vn 0.000000 0.646792 -0.762666
vn 0.000000 0.646792 -0.762666
vn 0.000000 0.452779 -0.891623
vn 0.000000 0.452779 -0.891623
vn 0.000000 0.931797 0.362981
vn 0.000000 0.931797 0.362980
vn 0.000000 0.648457 0.761252
vn 0.000000 0.648457 0.761251
vn 0.000000 0.768269 0.640127
vn 0.000000 0.768270 0.640126
vn 0.000000 0.823623 0.567138
vn 0.000000 0.823623 0.567138
vn 0.000000 0.794465 0.607311
vn 0.000000 0.794465 0.607310
vn 0.000000 0.673478 0.739207
vn 0.000000 0.673479 0.739207
s 1
g pCube10
usemtl lambert5SG
f 1/82/1 2/2/2 3/83/3
f 3/83/3 2/2/2 4/80/4
s 2
f 3/3/5 4/81/6 34/66/7
f 34/66/7 4/81/6 27/51/8
s 3
f 5/5/9 6/6/10 7/7/11
f 7/7/11 6/6/10 8/8/12
s 4
f 7/7/13 8/8/14 12/22/15
f 12/22/15 8/8/14 11/19/16
s 5
f 9/16/17 33/64/18 20/38/19
f 8/11/20 6/12/21 11/20/22
f 11/20/22 6/12/21 2/79/23
f 33/64/18 32/62/24 20/38/19
f 20/38/19 32/62/24 21/40/25
f 2/79/23 6/12/21 4/4/26
f 4/4/26 6/12/21 27/52/27
f 27/52/27 6/12/21 28/54/28
f 28/54/28 6/12/21 29/56/29
f 29/56/29 6/12/21 30/58/30
f 6/12/21 26/50/31 30/58/30
f 26/50/31 25/48/32 30/58/30
f 25/48/32 24/46/33 30/58/30
f 24/46/33 23/44/34 30/58/30
f 23/44/34 22/42/35 30/58/30
f 30/58/30 22/42/35 31/60/36
f 22/42/35 21/40/25 31/60/36
f 21/40/25 32/62/24 31/60/36
s 7
f 10/17/37 13/23/38 40/77/39
f 7/13/40 12/21/41 5/14/42
f 12/21/41 1/1/43 5/14/42
f 40/77/39 13/23/38 39/75/44
f 13/23/38 14/25/45 39/75/44
f 1/1/43 3/84/46 5/14/42
f 3/84/46 34/65/47 5/14/42
f 34/65/47 35/67/48 5/14/42
f 35/67/48 36/69/49 5/14/42
f 36/69/49 37/71/50 5/14/42
f 37/71/50 38/73/51 5/14/42
f 5/14/42 38/73/51 19/35/52
f 19/35/52 38/73/51 18/33/53
f 18/33/53 38/73/51 17/31/54
f 17/31/54 38/73/51 16/29/55
f 16/29/55 38/73/51 15/27/56
f 15/27/56 38/73/51 14/25/45
f 38/73/51 39/75/44 14/25/45
s 2
f 10/18/57 9/15/58 13/24/59
f 13/24/59 9/15/58 20/37/60
s 4
f 12/22/15 11/19/16 1/9/61
f 1/9/61 11/19/16 2/10/62
s 2
f 19/36/63 26/49/64 5/5/65
f 5/5/65 26/49/64 6/6/66
f 18/34/67 25/47/68 19/36/63
f 19/36/63 25/47/68 26/49/64
f 17/32/69 24/45/70 18/34/67
f 18/34/67 24/45/70 25/47/68
f 16/30/71 23/43/72 17/32/69
f 17/32/69 23/43/72 24/45/70
f 15/28/73 22/41/74 16/30/71
f 16/30/71 22/41/74 23/43/72
f 14/26/75 21/39/76 15/28/73
f 15/28/73 21/39/76 22/41/74
f 13/24/59 20/37/60 14/26/75
f 14/26/75 20/37/60 21/39/76
f 40/78/77 33/63/78 10/18/57
f 10/18/57 33/63/78 9/15/58
f 39/76/79 32/61/80 40/78/77
f 40/78/77 32/61/80 33/63/78
f 38/74/81 31/59/82 39/76/79
f 39/76/79 31/59/82 32/61/80
f 37/72/83 30/57/84 38/74/81
f 38/74/81 30/57/84 31/59/82
f 36/70/85 29/55/86 37/72/83
f 37/72/83 29/55/86 30/57/84
f 35/68/87 28/53/88 36/70/85
f 36/70/85 28/53/88 29/55/86
f 34/66/7 27/51/8 35/68/87
f 35/68/87 27/51/8 28/53/88
