# This file uses centimeters as units for non-parametric coordinates.

mtllib Totem.mtl
g default
v -2.357910 -0.000000 1.900246
v 2.719326 -0.000000 1.900246
v -2.357910 5.883529 1.900246
v 2.719326 5.883529 1.900246
v -2.357910 5.883529 -0.282752
v 2.719326 5.883529 -0.282752
v -2.357910 -0.000000 -0.282752
v 2.719326 -0.000000 -0.282752
vt 0.436196 0.001992
vt 0.864384 0.001992
vt 0.864384 0.498178
vt 0.436196 0.498178
vt 0.242516 0.930010
vt 0.242516 0.501822
vt 0.461689 0.501822
vt 0.461689 0.930010
vt 0.001819 0.001992
vt 0.430006 0.001992
vt 0.430006 0.498178
vt 0.001819 0.498178
vt 0.017740 0.930010
vt 0.017740 0.501822
vt 0.236914 0.501822
vt 0.236914 0.930010
vt 0.692066 0.501822
vt 0.911239 0.501822
vt 0.911239 0.998008
vt 0.692066 0.998008
vt 0.467291 0.501822
vt 0.686464 0.501822
vt 0.686464 0.998008
vt 0.467291 0.998008
vn 0.000000 0.000000 1.000000
vn 0.000000 0.000000 1.000000
vn 0.000000 0.000000 1.000000
vn 0.000000 0.000000 1.000000
vn 0.000000 1.000000 0.000000
vn 0.000000 1.000000 0.000000
vn 0.000000 1.000000 0.000000
vn 0.000000 1.000000 0.000000
vn 0.000000 0.000000 -1.000000
vn 0.000000 0.000000 -1.000000
vn 0.000000 0.000000 -1.000000
vn 0.000000 0.000000 -1.000000
vn 0.000000 -1.000000 0.000000
vn 0.000000 -1.000000 0.000000
vn 0.000000 -1.000000 0.000000
vn 0.000000 -1.000000 0.000000
vn 1.000000 0.000000 0.000000
vn 1.000000 0.000000 0.000000
vn 1.000000 0.000000 0.000000
vn 1.000000 0.000000 0.000000
vn -1.000000 0.000000 0.000000
vn -1.000000 0.000000 0.000000
vn -1.000000 0.000000 0.000000
vn -1.000000 0.000000 0.000000
s off
g pCube1
usemtl initialShadingGroup
f 1/1/1 2/2/2 4/3/3 3/4/4
f 3/5/5 4/6/6 6/7/7 5/8/8
f 5/9/9 6/10/10 8/11/11 7/12/12
f 7/13/13 8/14/14 2/15/15 1/16/16
f 2/17/17 8/18/18 6/19/19 4/20/20
f 7/21/21 1/22/22 3/23/23 5/24/24
